<svg version="1.1" xmlns="http://www.w3.org/2000/svg" xmlns:xlink="http://www.w3.org/1999/xlink" width="587.28889" height="190" viewBox="0,0,587.28889,190"><g transform="translate(21.72656,-223.91284)"><g data-paper-data="{&quot;isPaintingLayer&quot;:true}" fill-rule="nonzero" stroke-linecap="butt" stroke-linejoin="miter" stroke-miterlimit="10" stroke-dasharray="" stroke-dashoffset="0" style="mix-blend-mode: normal"><path d="M-20.72656,412.91284v-188h317v188z" fill="#c1c1c1" stroke="#ababab" stroke-width="2"/><path d="M-7.72656,404.91284v-53h291v53z" fill="#797979" stroke="#e0e0e0" stroke-width="3"/><path d="M293.27344,412.91284v-109h271.28889v109z" fill="#c1c1c1" stroke="#ababab" stroke-width="2"/><path d="M-11.72656,313.91284v-80h130v80z" fill="#4e4e4e" stroke="#ababab" stroke-width="2"/><path d="M151.27344,312.91284v-81h127v81z" fill="#4e4e4e" stroke="#ababab" stroke-width="2"/><path d="M162.27344,296.91284v-55h105.84906v55z" fill="#006bff" stroke="#008a7c" stroke-width="1"/><path d="M23.27344,271.41284c0,-15.74012 12.75988,-28.5 28.5,-28.5c15.74012,0 28.5,12.75988 28.5,28.5c0,15.74012 -12.75988,28.5 -28.5,28.5c-15.74012,0 -28.5,-12.75988 -28.5,-28.5z" fill="#2f2f2f" stroke="#bdbdbd" stroke-width="1.5"/><path d="M305.27344,398.91284v-80h245.87097v80z" fill="#797979" stroke="#e0e0e0" stroke-width="3"/></g></g></svg>