<svg version="1.1" xmlns="http://www.w3.org/2000/svg" xmlns:xlink="http://www.w3.org/1999/xlink" width="539.5" height="190" viewBox="0,0,539.5,190"><g transform="translate(26.72656,-223.91284)"><g data-paper-data="{&quot;isPaintingLayer&quot;:true}" fill-rule="nonzero" stroke-linejoin="miter" stroke-miterlimit="10" stroke-dasharray="" stroke-dashoffset="0" style="mix-blend-mode: normal"><path d="M-20.72656,412.91284v-188h317v188z" fill="#c1c1c1" stroke="#ababab" stroke-width="2" stroke-linecap="butt"/><path d="M-7.72656,404.91284v-53h291v53z" fill="#797979" stroke="#e0e0e0" stroke-width="3" stroke-linecap="butt"/><path d="M293.27344,393.91284v-90h212v90z" fill="#c1c1c1" stroke="#ababab" stroke-width="2" stroke-linecap="butt"/><path d="M-25.72656,313.91284v-80h144v80z" fill="#4e4e4e" stroke="#ababab" stroke-width="2" stroke-linecap="butt"/><path d="M151.27344,312.91284v-81h127v81z" fill="#4e4e4e" stroke="#ababab" stroke-width="2" stroke-linecap="butt"/><path d="M162.27344,296.91284v-55h105.84906v55z" fill="#006bff" stroke="#008a7c" stroke-width="1" stroke-linecap="butt"/><path d="M38.27344,271.41284c0,-15.74012 12.75988,-28.5 28.5,-28.5c15.74012,0 28.5,12.75988 28.5,28.5c0,15.74012 -12.75988,28.5 -28.5,28.5c-15.74012,0 -28.5,-12.75988 -28.5,-28.5z" fill="#2f2f2f" stroke="#bdbdbd" stroke-width="1.5" stroke-linecap="butt"/><path d="M68.27344,275.91284l-18,-24" fill="none" stroke="#e0e0e0" stroke-width="3" stroke-linecap="round"/><path d="M305.27344,380.91284v-62h206v62z" fill="#797979" stroke="#e0e0e0" stroke-width="3" stroke-linecap="butt"/></g></g></svg>